<svg width="28" height="28" viewBox="0 0 28 28" fill="none" xmlns="http://www.w3.org/2000/svg">
<path d="M14 28C12.3113 28 10.9375 26.6261 10.9375 24.9375V24.0462C10.2887 23.849 9.66159 23.5891 9.06216 23.269L8.43139 23.8997C7.85312 24.478 7.08416 24.7964 6.26609 24.7964C5.44764 24.7964 4.67846 24.478 4.10025 23.8997C2.90648 22.7052 2.90659 20.7623 4.1003 19.5687L4.73107 18.9379C4.41098 18.3385 4.15111 17.7113 3.95385 17.0626H3.0625C2.24476 17.0626 1.4758 16.7439 0.897203 16.1653C0.318609 15.5867 0 14.8177 0 14C0 12.3114 1.3738 10.9375 3.0625 10.9375H3.95385C4.15105 10.2887 4.41098 9.66159 4.73107 9.06216L4.1003 8.43139C3.52204 7.85312 3.20359 7.08416 3.20359 6.26609C3.20359 5.4477 3.52204 4.67852 4.10025 4.10025C5.29484 2.90637 7.23767 2.90653 8.43139 4.10025L9.06216 4.73102C9.66159 4.41093 10.2887 4.15105 10.9375 3.9538V3.0625C10.9375 2.24481 11.2561 1.47585 11.8346 0.897258C12.4133 0.318664 13.1823 0 14 0C14.2035 0 14.4086 0.0205078 14.6097 0.0608672C16.0318 0.349781 17.0625 1.61202 17.0625 3.0625V3.9538C17.7113 4.151 18.3384 4.41093 18.9378 4.73102L19.5686 4.10025C20.1469 3.52204 20.9158 3.20359 21.7339 3.20359C22.5524 3.20359 23.3215 3.52204 23.8997 4.10025C25.0935 5.29479 25.0934 7.23767 23.8997 8.43134L23.2689 9.0621C23.589 9.66153 23.8489 10.2887 24.0461 10.9374H24.9375C25.7552 10.9374 26.5242 11.2561 27.1028 11.8347C27.6814 12.4133 28 13.1823 28 14C28 15.6886 26.6262 17.0625 24.9375 17.0625H24.0461C23.8489 17.7113 23.589 18.3384 23.2689 18.9378L23.8997 19.5686C24.4779 20.1469 24.7964 20.9158 24.7964 21.7339C24.7964 22.5523 24.4779 23.3215 23.8997 23.8997C23.3025 24.4966 22.518 24.795 21.7339 24.7951C20.9495 24.7951 20.1655 24.4967 19.5686 23.8998L18.9378 23.269C18.3384 23.5891 17.7112 23.849 17.0624 24.0463V24.9375C17.0624 25.7552 16.7438 26.5241 16.1653 27.1027C15.738 27.53 15.2008 27.8191 14.6116 27.9388C14.611 27.9389 14.6104 27.939 14.6097 27.9391C14.4086 27.9795 14.2035 28 14 28ZM14.4375 27.0813H14.438H14.4375ZM8.91816 21.3008C9.07747 21.3008 9.2377 21.3441 9.38044 21.4331C10.1948 21.9402 11.0796 22.3069 12.0103 22.5228C12.4068 22.6148 12.6875 22.9681 12.6875 23.3751V24.9375C12.6875 25.6612 13.2763 26.25 14 26.25C14.0876 26.25 14.1762 26.2411 14.2636 26.2237C14.5148 26.1726 14.7445 26.0487 14.9279 25.8653C15.1759 25.6173 15.3125 25.2878 15.3125 24.9375V23.3751C15.3125 22.968 15.5932 22.6147 15.9897 22.5227C16.9204 22.3068 17.8052 21.9402 18.6196 21.433C18.9649 21.2179 19.4131 21.2693 19.7008 21.557L20.806 22.6623C21.3176 23.1738 22.1504 23.1738 22.6624 22.6621C22.91 22.4145 23.0464 22.0848 23.0464 21.7339C23.0464 21.3833 22.91 21.0537 22.6623 20.806L21.5571 19.7008C21.2693 19.4131 21.218 18.965 21.433 18.6196C21.9402 17.8052 22.3069 16.9204 22.5227 15.9898C22.6147 15.5933 22.968 15.3126 23.3751 15.3126H24.9375C25.6612 15.3126 26.25 14.7237 26.25 14.0001C26.25 13.6498 26.1134 13.3203 25.8653 13.0722C25.6173 12.8241 25.2878 12.6875 24.9375 12.6875H23.3751C22.968 12.6875 22.6147 12.4068 22.5227 12.0103C22.3069 11.0797 21.9402 10.1949 21.433 9.38044C21.2179 9.03503 21.2693 8.58692 21.5571 8.29921L22.6623 7.19403C23.1739 6.68243 23.1739 5.84965 22.6621 5.33761C22.4147 5.09009 22.0849 4.9537 21.7339 4.9537C21.3833 4.9537 21.0537 5.09015 20.806 5.33783L19.7008 6.44301C19.413 6.73083 18.9649 6.78212 18.6196 6.56704C17.8052 6.05987 16.9204 5.69324 15.9897 5.47734C15.5932 5.3853 15.3125 5.03196 15.3125 4.62492V3.0625C15.3125 2.4407 14.8713 1.89973 14.2633 1.7762C14.1773 1.75897 14.088 1.75 14 1.75C13.6497 1.75 13.3202 1.88661 13.0721 2.13467C12.8241 2.38273 12.6875 2.71223 12.6875 3.0625V4.62492C12.6875 5.03196 12.4068 5.3853 12.0103 5.47728C11.0796 5.69319 10.1948 6.05981 9.38044 6.56698C9.0352 6.78212 8.58692 6.73072 8.29921 6.44295L7.19398 5.33772C6.68237 4.82612 5.84959 4.82623 5.33755 5.33794C5.09004 5.58545 4.95359 5.91516 4.95359 6.26615C4.95359 6.61675 5.08998 6.9463 5.33772 7.19398L6.4429 8.29916C6.73066 8.58692 6.78202 9.03503 6.56698 9.38038C6.05981 10.1948 5.69313 11.0796 5.47728 12.0102C5.38535 12.4068 5.03202 12.6875 4.62492 12.6875H3.0625C2.33882 12.6875 1.75 13.2763 1.75 14C1.75 14.3503 1.88661 14.6798 2.13467 14.9278C2.38268 15.1759 2.71223 15.3125 3.0625 15.3125H4.62492C5.03196 15.3125 5.3853 15.5932 5.47728 15.9897C5.69313 16.9203 6.05976 17.8051 6.56698 18.6196C6.78207 18.965 6.73066 19.4131 6.4429 19.7008L5.33766 20.806C4.82606 21.3176 4.82612 22.1504 5.33788 22.6624C5.58534 22.9099 5.91511 23.0463 6.26609 23.0463C6.6167 23.0463 6.9463 22.9099 7.19398 22.6622L8.29921 21.557C8.46803 21.3882 8.69209 21.3008 8.91816 21.3008Z" fill="#AA0034"/>
<path d="M14 20.125C10.6227 20.125 7.875 17.3773 7.875 14C7.875 10.6227 10.6227 7.875 14 7.875C14.174 7.875 14.3467 7.88238 14.5135 7.89687C16.0364 8.02205 17.4525 8.71254 18.4966 9.84091C19.5467 10.9757 20.125 12.4528 20.125 14C20.125 15.5472 19.5467 17.0243 18.4966 18.1591C17.4525 19.2875 16.0364 19.9779 14.5092 20.1035C14.3467 20.1176 14.174 20.125 14 20.125ZM14 9.625C11.5876 9.625 9.625 11.5876 9.625 14C9.625 16.4124 11.5876 18.375 14 18.375C14.1235 18.375 14.2451 18.3699 14.3615 18.3597C16.614 18.1746 18.375 16.2597 18.375 14C18.375 11.7403 16.614 9.82543 14.3658 9.64064C14.2451 9.63014 14.1235 9.625 14 9.625Z" fill="#AA0034"/>
</svg>
