<svg width="28" height="28" viewBox="0 0 28 28" fill="none" xmlns="http://www.w3.org/2000/svg">
<path d="M3.9375 0C1.76635 0 0 1.76635 0 3.9375C0 6.10865 1.76635 7.875 3.9375 7.875C6.10865 7.875 7.875 6.10865 7.875 3.9375C7.875 1.76635 6.10865 0 3.9375 0ZM3.9375 6.125C2.73131 6.125 1.75 5.14369 1.75 3.9375C1.75 2.73131 2.73131 1.75 3.9375 1.75C5.14369 1.75 6.125 2.73131 6.125 3.9375C6.125 5.14369 5.14369 6.125 3.9375 6.125Z" fill="#AA0034"/>
<path d="M3.9375 10.0625C1.76635 10.0625 0 11.8289 0 14C0 16.1711 1.76635 17.9375 3.9375 17.9375C6.10865 17.9375 7.875 16.1711 7.875 14C7.875 11.8289 6.10865 10.0625 3.9375 10.0625ZM3.9375 16.1875C2.73131 16.1875 1.75 15.2062 1.75 14C1.75 12.7938 2.73131 11.8125 3.9375 11.8125C5.14369 11.8125 6.125 12.7938 6.125 14C6.125 15.2062 5.14369 16.1875 3.9375 16.1875Z" fill="#AA0034"/>
<path d="M3.9375 20.125C1.76635 20.125 0 21.8914 0 24.0625C0 26.2336 1.76635 28 3.9375 28C6.10865 28 7.875 26.2336 7.875 24.0625C7.875 21.8914 6.10865 20.125 3.9375 20.125ZM3.9375 26.25C2.73131 26.25 1.75 25.2687 1.75 24.0625C1.75 22.8563 2.73131 21.875 3.9375 21.875C5.14369 21.875 6.125 22.8563 6.125 24.0625C6.125 25.2687 5.14369 26.25 3.9375 26.25Z" fill="#AA0034"/>
<path d="M13.5625 7.875H24.0625C26.2336 7.875 28 6.10865 28 3.9375C28 1.76635 26.2336 0 24.0625 0H13.5625C11.3914 0 9.625 1.76635 9.625 3.9375C9.625 6.10865 11.3914 7.875 13.5625 7.875ZM13.5625 1.75H24.0625C25.2687 1.75 26.25 2.73131 26.25 3.9375C26.25 5.14369 25.2687 6.125 24.0625 6.125H13.5625C12.3563 6.125 11.375 5.14369 11.375 3.9375C11.375 2.73131 12.3563 1.75 13.5625 1.75Z" fill="#AA0034"/>
<path d="M24.0625 10.0625H13.5625C11.3914 10.0625 9.625 11.8289 9.625 14C9.625 16.1711 11.3914 17.9375 13.5625 17.9375H24.0625C26.2336 17.9375 28 16.1711 28 14C28 11.8289 26.2336 10.0625 24.0625 10.0625ZM24.0625 16.1875H13.5625C12.3563 16.1875 11.375 15.2062 11.375 14C11.375 12.7938 12.3563 11.8125 13.5625 11.8125H24.0625C25.2687 11.8125 26.25 12.7938 26.25 14C26.25 15.2062 25.2687 16.1875 24.0625 16.1875Z" fill="#AA0034"/>
<path d="M24.0625 20.125H13.5625C11.3914 20.125 9.625 21.8914 9.625 24.0625C9.625 26.2336 11.3914 28 13.5625 28H24.0625C26.2336 28 28 26.2336 28 24.0625C28 21.8914 26.2336 20.125 24.0625 20.125ZM24.0625 26.25H13.5625C12.3563 26.25 11.375 25.2687 11.375 24.0625C11.375 22.8563 12.3563 21.875 13.5625 21.875H24.0625C25.2687 21.875 26.25 22.8563 26.25 24.0625C26.25 25.2687 25.2687 26.25 24.0625 26.25Z" fill="#AA0034"/>
</svg>
