<svg width="28" height="28" viewBox="0 0 28 28" fill="none" xmlns="http://www.w3.org/2000/svg">
<g clip-path="url(#clip0)">
<path fill-rule="evenodd" clip-rule="evenodd" d="M8.96448 15.5743C9.90325 14.7713 10.5 13.5793 10.5 12.25C10.5 9.83763 8.53737 7.875 6.125 7.875C3.71263 7.875 1.75 9.83763 1.75 12.25C1.75 13.5793 2.34675 14.7713 3.28552 15.5743C1.33416 16.5997 0 18.6469 0 21V26.273C0 26.6497 0.241008 26.984 0.598281 27.1031C2.38361 27.6982 4.24309 28 6.125 28C8.00691 28 9.86639 27.6982 11.6517 27.1032L9.67969 25.8417C7.07341 26.4424 4.32202 26.3715 1.75 25.629V21C1.75 18.5876 3.71263 16.625 6.125 16.625C8.05002 16.625 9.68865 17.8747 10.2722 19.6055L11.7805 18.6484C11.2284 17.3259 10.2253 16.2369 8.96448 15.5743ZM6.125 9.625C4.67759 9.625 3.5 10.8026 3.5 12.25C3.5 13.6974 4.67759 14.875 6.125 14.875C7.57241 14.875 8.75 13.6974 8.75 12.25C8.75 10.8026 7.57241 9.625 6.125 9.625Z" fill="#AA0034"/>
<path fill-rule="evenodd" clip-rule="evenodd" d="M19.0582 15.5743C18.1195 14.7713 17.5227 13.5793 17.5227 12.25C17.5227 9.83763 19.4853 7.875 21.8977 7.875C24.3101 7.875 26.2727 9.83763 26.2727 12.25C26.2727 13.5793 25.676 14.7713 24.7372 15.5743C26.6886 16.5997 28.0227 18.6469 28.0227 21V26.273C28.0227 26.6497 27.7817 26.984 27.4244 27.1031C25.6391 27.6982 23.7796 28 21.8977 28C20.0158 28 18.1563 27.6982 16.371 27.1032L18.343 25.8417C20.9493 26.4424 23.7007 26.3715 26.2727 25.629V21C26.2727 18.5876 24.3101 16.625 21.8977 16.625C19.9727 16.625 18.3341 17.8747 17.7505 19.6055L16.2422 18.6484C16.7943 17.3259 17.7974 16.2369 19.0582 15.5743ZM21.8977 9.625C23.3451 9.625 24.5227 10.8026 24.5227 12.25C24.5227 13.6974 23.3451 14.875 21.8977 14.875C20.4503 14.875 19.2727 13.6974 19.2727 12.25C19.2727 10.8026 20.4503 9.625 21.8977 9.625Z" fill="#AA0034"/>
<path d="M13.6844 9.99894C13.896 10.0851 14.133 10.0852 14.3447 9.99894C14.5752 9.90504 19.99 7.65365 19.99 3.71032C19.99 0.666661 16.4721 -1.05392 14.0146 0.711228C11.5513 -1.0578 8.03906 0.67202 8.03906 3.71032C8.03906 7.65359 13.4539 9.90499 13.6844 9.99894ZM11.8011 1.75159C12.4008 1.75159 12.9651 2.00959 13.3493 2.45937C13.6983 2.86802 14.3308 2.86808 14.6799 2.45937C15.064 2.00954 15.6283 1.75159 16.228 1.75159C17.3375 1.75159 18.2402 2.63026 18.2402 3.71027C18.2402 5.82851 15.4433 7.56796 14.0147 8.23319C12.5851 7.56746 9.78901 5.82824 9.78901 3.71027C9.78896 2.63026 10.6916 1.75159 11.8011 1.75159Z" fill="#AA0034"/>
<path d="M16.3198 17.6999C17.0867 17.043 17.5742 16.0681 17.5742 14.9808C17.5742 13.0076 15.9708 11.4023 14 11.4023C12.0292 11.4023 10.4258 13.0076 10.4258 14.9808C10.4258 16.0681 10.9133 17.043 11.6802 17.6999C10.0861 18.5386 8.99609 20.213 8.99609 22.1377V26.4507C8.99609 26.7588 9.19299 27.0323 9.48487 27.1297C10.9434 27.6165 12.4625 27.8633 14 27.8633C15.5374 27.8633 17.0566 27.6165 18.5151 27.1297C18.8071 27.0323 19.0039 26.7588 19.0039 26.4508V22.1377C19.0039 20.213 17.9139 18.5386 16.3198 17.6999ZM11.8555 14.9808C11.8555 13.7969 12.8175 12.8337 14 12.8337C15.1825 12.8337 16.1445 13.7969 16.1445 14.9808C16.1445 16.1647 15.1825 17.1279 14 17.1279C12.8175 17.1279 11.8555 16.1647 11.8555 14.9808ZM17.5742 25.9239C15.2511 26.5954 12.7489 26.5954 10.4258 25.9239V22.1377C10.4258 20.1646 12.0292 18.5593 14 18.5593C15.9708 18.5593 17.5742 20.1646 17.5742 22.1377V25.9239Z" fill="#AA0034"/>
<path fill-rule="evenodd" clip-rule="evenodd" d="M10.2891 14.9808C10.2891 12.9323 11.9535 11.2656 14 11.2656C16.0465 11.2656 17.7109 12.9323 17.7109 14.9808C17.7109 16.0397 17.2656 16.9957 16.5538 17.6727C18.0979 18.5613 19.1406 20.2295 19.1406 22.1377V26.4508C19.1406 26.8176 18.9062 27.1434 18.5584 27.2594C17.0859 27.7508 15.5522 28 14 28C12.4478 28 10.9141 27.7508 9.44158 27.2594C9.09382 27.1433 8.85938 26.8175 8.85938 26.4507V22.1377C8.85938 20.2295 9.90213 18.5613 11.4462 17.6727C10.7344 16.9957 10.2891 16.0397 10.2891 14.9808ZM14 11.5391C12.1048 11.5391 10.5625 13.083 10.5625 14.9808C10.5625 16.0263 11.0311 16.9639 11.7692 17.5961L11.9222 17.7271L11.7439 17.8209C10.1928 18.637 9.13281 20.2659 9.13281 22.1377V26.4507C9.13281 26.7 9.29215 26.9212 9.52815 27C10.9727 27.4821 12.4773 27.7266 14 27.7266C15.5227 27.7266 17.0273 27.4821 18.4719 27.0001C18.7079 26.9213 18.8672 26.7001 18.8672 26.4508V22.1377C18.8672 20.2659 17.8072 18.637 16.2561 17.8209L16.0778 17.7271L16.2308 17.5961C16.9689 16.9639 17.4375 16.0263 17.4375 14.9808C17.4375 13.083 15.8952 11.5391 14 11.5391ZM14 12.9704C12.8932 12.9704 11.9922 13.8723 11.9922 14.9808C11.9922 16.0893 12.8932 16.9912 14 16.9912C15.1068 16.9912 16.0078 16.0893 16.0078 14.9808C16.0078 13.8723 15.1068 12.9704 14 12.9704ZM11.7188 14.9808C11.7188 13.7216 12.7419 12.697 14 12.697C15.2581 12.697 16.2812 13.7216 16.2812 14.9808C16.2812 16.2401 15.2581 17.2646 14 17.2646C12.7419 17.2646 11.7188 16.2401 11.7188 14.9808ZM14 18.696C12.1048 18.696 10.5625 20.2399 10.5625 22.1377V25.8207C12.7999 26.4476 15.2001 26.4476 17.4375 25.8207V22.1377C17.4375 20.2399 15.8952 18.696 14 18.696ZM10.2891 22.1377C10.2891 20.0892 11.9535 18.4226 14 18.4226C16.0465 18.4226 17.7109 20.0892 17.7109 22.1377V26.0267L17.6122 26.0553C15.2643 26.7339 12.7357 26.7339 10.3878 26.0553L10.2891 26.0267V22.1377Z" fill="#AA0034"/>
</g>
<defs>
<clipPath id="clip0">
<rect width="28" height="28" fill="white"/>
</clipPath>
</defs>
</svg>
