<svg width="159" height="28" viewBox="0 0 159 28" fill="none" xmlns="http://www.w3.org/2000/svg">
<path d="M65.5408 5.73969C65.3856 5.80952 65.2071 5.98799 65.1295 6.14318C65.0054 6.39924 64.9976 6.77169 65.0209 11.9628C65.0442 18.2324 65.0131 17.891 65.6804 19.2567C65.9831 19.8774 66.146 20.1024 66.7435 20.6999C67.9307 21.8949 69.1101 22.3682 70.8948 22.376C72.082 22.3837 72.6717 22.2518 73.6882 21.7552C74.309 21.4526 74.534 21.2896 75.1315 20.6999C75.7289 20.1024 75.8919 19.8774 76.1945 19.2567C76.7222 18.1859 76.8308 17.7203 76.823 16.4245C76.823 15.5399 76.792 15.2217 76.6523 14.7329C75.8453 11.8852 73.3313 10.1781 70.5146 10.5661C69.3429 10.729 68.3807 11.1791 67.5505 11.9628L67.0927 12.3973V9.36335C67.0927 6.46131 67.0849 6.3294 66.9375 6.0811C66.6659 5.63105 66.0529 5.48362 65.5408 5.73969ZM71.8182 12.4671C72.5553 12.6456 73.1606 13.0025 73.7115 13.5845C74.9685 14.9269 75.1935 16.8202 74.309 18.5583C74.0374 19.0937 73.1916 19.8929 72.5941 20.1723C70.274 21.2741 67.6746 19.9162 67.1237 17.3168C66.5029 14.376 68.9937 11.8076 71.8182 12.4671Z" fill="black"/>
<path d="M105.269 5.73967C105.122 5.8095 104.951 5.95693 104.897 6.06557C104.656 6.53889 104.726 6.72512 107.969 14.182C109.677 18.116 111.159 21.4914 111.252 21.6931C111.446 22.1199 111.733 22.2984 112.214 22.2984C112.602 22.2984 112.827 22.1975 112.99 21.9492C113.052 21.8483 114.549 18.4186 116.326 14.3294C119.872 6.12764 119.779 6.40698 119.337 5.91038C118.972 5.49913 118.088 5.51464 117.816 5.93365C117.754 6.03453 116.474 9.02192 114.968 12.5835C113.463 16.1451 112.222 19.0937 112.198 19.1325C112.175 19.1635 110.926 16.2382 109.42 12.6301C107.915 9.02192 106.635 6.01125 106.58 5.93365C106.441 5.77071 106.03 5.6 105.758 5.6C105.642 5.6 105.417 5.66208 105.269 5.73967Z" fill="black"/>
<path d="M140.42 5.73966C139.884 6.00348 139.876 6.0578 139.876 9.38661V12.3662L139.356 11.8852C138.775 11.3575 137.882 10.8764 137.083 10.6669C136.416 10.4962 135.058 10.4962 134.336 10.6747C132.559 11.1015 131.054 12.5525 130.441 14.4225C130.231 15.0665 130.216 15.1829 130.216 16.4244C130.216 17.4875 130.247 17.8367 130.355 18.2014C130.976 20.2111 132.497 21.6854 134.491 22.213C135.337 22.438 136.796 22.438 137.634 22.213C139.597 21.7009 141.048 20.3197 141.715 18.3255L141.933 17.666L141.956 12.0015C141.971 6.40698 141.971 6.33714 141.816 6.08108C141.537 5.63103 140.932 5.4836 140.42 5.73966ZM137.331 12.5757C138.906 13.1189 139.954 14.6475 139.954 16.4012C139.954 17.2004 139.838 17.7048 139.512 18.3876C138.518 20.4206 135.95 21.1732 134.049 19.9938C131.915 18.6747 131.488 15.5166 133.188 13.6543C133.801 12.9948 134.445 12.6223 135.337 12.4283C135.803 12.3197 136.827 12.3973 137.331 12.5757Z" fill="black"/>
<path d="M123.744 6.11988C123.232 6.36818 122.953 7.07429 123.116 7.67953C123.364 8.6029 124.559 8.99088 125.265 8.37012C125.63 8.05198 125.754 7.77264 125.754 7.2838C125.754 6.80271 125.56 6.44577 125.141 6.16643C124.815 5.94917 124.14 5.92589 123.744 6.11988Z" fill="black"/>
<path d="M39.7017 10.5738C39.0266 10.6747 38.111 10.9928 37.6687 11.2722C37.1876 11.5826 36.6988 12.118 36.497 12.568C36.2565 13.0956 36.2565 14.3294 36.497 14.857C36.9548 15.8503 38.1188 16.5952 39.7793 16.9754C41.8278 17.4409 42.5649 17.7048 42.9762 18.1471C43.7289 18.9385 43.2788 20.0248 42.0295 20.4051C41.4321 20.5835 40.0509 20.5758 39.4301 20.3895C38.7938 20.1956 38.274 19.924 37.8937 19.5748C37.467 19.1868 37.2885 19.1015 36.9005 19.1015C36.1013 19.1015 35.5814 19.8929 35.9384 20.5758C36.1711 21.0258 37.2652 21.7009 38.305 22.0345C39.112 22.2984 39.756 22.3837 40.788 22.3837C42.5184 22.376 43.5426 22.0268 44.4427 21.1267C45.1411 20.4283 45.3195 19.9705 45.3273 18.9075C45.3273 18.2169 45.304 18.085 45.1178 17.697C44.5591 16.5719 43.2866 15.8735 40.9432 15.4157C39.0111 15.0355 38.2041 14.4768 38.3283 13.6C38.3826 13.15 38.5843 12.9172 39.1275 12.6534C39.531 12.4516 39.7405 12.4051 40.3147 12.3663C41.5096 12.3042 42.3166 12.5447 43.0848 13.212C43.5271 13.5923 43.7133 13.6698 44.2022 13.6698C44.9083 13.6698 45.304 13.0879 45.0169 12.4749C44.6988 11.8153 43.4883 11.0084 42.3942 10.7213C41.6881 10.5428 40.3845 10.4729 39.7017 10.5738Z" fill="black"/>
<path d="M53.7464 10.5661C51.2633 10.9152 49.3933 12.6146 48.8967 14.9967C48.7493 15.6951 48.7493 17.2237 48.8967 17.922C49.4088 20.3895 51.3487 22.0889 53.9404 22.3604C55.8337 22.5544 57.5407 22.0268 58.7745 20.8551C60.0626 19.6291 60.6678 17.9919 60.5514 16.0442C60.4893 15.0355 60.3497 14.5001 59.8996 13.5923C59.2245 12.2111 57.8589 11.1092 56.3535 10.7213C55.6552 10.5428 54.4447 10.4729 53.7464 10.5661ZM55.4224 12.4361C56.8579 12.6999 58.0529 13.8483 58.4408 15.3459C58.5883 15.9278 58.5883 16.9987 58.4408 17.5884C57.9054 19.6757 55.9268 20.9094 53.8395 20.4671C52.0858 20.0947 50.8986 18.6902 50.759 16.8047C50.5417 14.0345 52.7609 11.9472 55.4224 12.4361Z" fill="black"/>
<path d="M85.7154 10.6049C85.0481 10.7911 84.2411 11.2179 83.76 11.6524L83.31 12.0559V11.5748C83.31 11.1558 83.2867 11.0704 83.0927 10.8764C82.6737 10.4652 81.8357 10.5195 81.4942 10.9773C81.3313 11.1946 81.3313 11.2411 81.3313 16.5098V21.8173L81.533 22.019C81.8977 22.376 82.759 22.3992 83.1005 22.0578C83.2712 21.8949 83.2712 21.8638 83.31 18.1859L83.3488 14.4846L83.5583 14.0423C84.1713 12.7387 85.793 12.1257 87.8648 12.4206C88.5088 12.5137 88.858 12.4206 89.052 12.0947C89.3003 11.6912 89.2537 11.3653 88.9123 11.0394C88.7493 10.8842 88.4778 10.7135 88.3071 10.6514C87.8415 10.4962 86.2275 10.4652 85.7154 10.6049Z" fill="black"/>
<path d="M96.0743 10.5738C95.3604 10.6824 94.8095 10.8609 94.181 11.1946C92.8696 11.9007 92.0316 12.9404 91.535 14.4846C91.2712 15.3148 91.2246 17.0995 91.4496 18.0462C91.6359 18.8299 92.0781 19.73 92.5747 20.3352C94.0801 22.1664 96.7493 22.8648 99.2401 22.0733C100.35 21.7241 101.289 21.1655 101.467 20.7387C101.591 20.4283 101.459 20.0248 101.149 19.761C100.776 19.4584 100.326 19.4894 99.6902 19.8696C98.5806 20.537 97.6494 20.7387 96.5631 20.5525C94.9414 20.2731 93.7619 19.2178 93.2886 17.6349C93.2188 17.4021 93.1645 17.2004 93.1645 17.1849C93.1645 17.1693 95.1198 17.1616 97.502 17.1616H101.84L102.088 16.9288L102.344 16.6883L102.297 15.7804C102.251 14.6786 102.119 14.1587 101.661 13.2353C100.691 11.2566 98.5185 10.2169 96.0743 10.5738ZM97.7503 12.3818C98.3943 12.5214 98.8211 12.7387 99.2556 13.1344C99.8221 13.6621 100.241 14.438 100.404 15.276L100.458 15.5321H96.8424H93.2265L93.2731 15.2372C93.3662 14.7484 93.8318 13.8483 94.2275 13.4293C95.0966 12.5059 96.4312 12.1024 97.7503 12.3818Z" fill="black"/>
<path d="M151.446 10.5738C149.273 10.8532 147.473 12.3507 146.728 14.4846C146.526 15.0665 146.519 15.1907 146.511 16.4244C146.511 17.9375 146.596 18.3566 147.093 19.373C148.14 21.4914 150.282 22.632 152.695 22.3604C153.859 22.2285 154.813 21.7862 155.713 20.9792L156.171 20.5602V21.0568C156.171 21.6543 156.342 22.019 156.722 22.2208C157.04 22.3915 157.327 22.3992 157.684 22.2518C158.212 22.0268 158.196 22.1354 158.173 18.3566L158.15 14.9501L157.925 14.3682C157.615 13.5379 157.227 12.9404 156.606 12.2887C155.271 10.9075 153.479 10.31 151.446 10.5738ZM153.626 12.5758C155.225 13.1267 156.249 14.6475 156.249 16.4632C156.249 18.0772 155.434 19.4584 154.092 20.1335C150.91 21.7242 147.558 18.6359 148.645 15.1131C149.071 13.7319 150.266 12.6844 151.748 12.3973C152.136 12.3274 153.192 12.4206 153.626 12.5758Z" fill="black"/>
<path d="M124.07 10.6514C123.706 10.76 123.45 11.117 123.387 11.5903C123.364 11.8153 123.349 14.1664 123.364 16.8124C123.387 21.2586 123.395 21.6466 123.527 21.8405C123.744 22.1664 124 22.2984 124.45 22.2984C124.885 22.2906 125.18 22.1354 125.343 21.8095C125.42 21.6698 125.444 20.3895 125.444 16.4089V11.2023L125.242 10.9618C125.133 10.8299 124.916 10.6902 124.761 10.6436C124.435 10.5583 124.404 10.5583 124.07 10.6514Z" fill="black"/>
<path d="M8.15821 0.0130672C6.59945 0.169291 5.17088 0.839314 4.07211 1.92767C3.09659 2.89278 2.44392 4.11826 2.18876 5.46178C2.10544 5.90441 2.09155 6.0832 2.09155 6.71156C2.09155 7.23925 2.09676 7.3434 2.13148 7.58815C2.29985 8.78238 2.70429 9.88463 3.40556 11.0632C4.37241 12.6914 5.92249 14.3908 7.84577 15.9305C9.54686 17.2913 11.5691 18.5151 12.5238 18.7581C12.9942 18.8779 13.7493 18.8744 14.2353 18.7511C15.1136 18.529 17.0143 17.3885 18.6495 16.104C20.6699 14.5192 22.2669 12.7904 23.3032 11.0684C23.5115 10.7213 23.8777 10.0027 24.0131 9.67112C24.303 8.96465 24.4922 8.26338 24.5911 7.53087C24.6345 7.20627 24.6345 6.20644 24.5911 5.87837C24.3828 4.3335 23.718 2.98998 22.6349 1.92072C21.576 0.877501 20.262 0.238722 18.7467 0.0338974C18.4134 -0.0112343 17.4153 -0.0112343 17.0976 0.0338974C16.2835 0.150196 15.6378 0.351551 14.9366 0.705656C14.4922 0.929575 14.0305 1.22293 13.6885 1.49892L13.6399 1.53711L13.7944 1.70722C14.4245 2.40328 14.9539 3.2139 15.3011 4.0089C15.4382 4.32482 15.5424 4.62512 15.6517 5.01915C15.6569 5.03824 15.5562 4.8473 15.4278 4.59387C14.8966 3.54371 14.3776 2.81293 13.6434 2.07521C13.1869 1.61522 12.8171 1.3184 12.3085 0.999008C12.0464 0.834106 11.4632 0.54249 11.2219 0.453962C11.1264 0.419247 11.0258 0.38106 10.9963 0.367172C10.7567 0.261288 10.1179 0.1068 9.62497 0.0356331C9.39585 0.00265121 8.41164 -0.01297 8.15821 0.0130672Z" fill="black"/>
<path d="M3.24597 20.1589C2.21663 20.2353 1.28797 20.5564 0.602326 21.0737C0.41833 21.2108 0.112828 21.5059 0.0486027 21.6031C0.00867906 21.6673 0 21.7003 0 21.7906C0 21.8669 0.0104149 21.9225 0.0347162 21.9676C0.0885264 22.0752 0.617949 22.563 1.12828 22.9761C3.16786 24.6251 5.87051 26.0294 8.66864 26.899C10.2465 27.3885 11.748 27.7079 13.5393 27.9353C14.0479 28.0013 14.0549 28.0013 14.6676 27.9995C15.3012 27.9995 15.5685 27.9822 16.1778 27.9041C18.6843 27.583 21.0398 26.6526 22.9821 25.2188C23.3866 24.9202 24.0236 24.3856 24.0236 24.3457C24.0236 24.3266 23.7771 23.9516 23.6869 23.8353C23.4317 23.5021 23.1661 23.3042 22.8693 23.2278C22.7218 23.1896 22.418 23.1931 22.2444 23.2347C21.9927 23.2955 21.8539 23.3632 21.2567 23.7104C20.5815 24.1027 19.6824 24.5123 19.2258 24.6338C19.1408 24.6581 19.0696 24.6789 19.0661 24.6824C19.0609 24.6859 19.0783 24.7328 19.1026 24.7883C19.1547 24.9063 19.2501 25.2223 19.2501 25.2761C19.2501 25.4757 18.0299 25.8593 16.8547 26.0294C16.2871 26.1127 15.8584 26.1509 15.2925 26.1683C13.147 26.236 11.2654 25.8124 9.72575 24.9167C9.62681 24.8595 9.54696 24.8109 9.54696 24.8074C9.54696 24.8039 9.64243 24.8473 9.76047 24.9011C10.7481 25.3698 12.0986 25.7465 13.2703 25.8819C13.8223 25.9461 13.975 25.953 14.6936 25.953C15.4713 25.9513 15.7056 25.9374 16.334 25.8471C17.096 25.7395 18.0333 25.5069 18.686 25.2622C18.8266 25.2101 18.8422 25.1997 18.837 25.1632C18.8214 25.0244 18.4604 24.2919 18.2711 24.0176C18.1687 23.8683 18.1687 23.8683 17.8094 23.8145C17.5473 23.7763 16.7957 23.7763 16.3774 23.8145C15.7074 23.877 15.5737 23.8857 15.0842 23.8857C14.3951 23.8857 13.9403 23.8336 13.4005 23.6965C12.7304 23.5264 12.1628 23.2677 11.3348 22.7539C11.1578 22.6446 10.8662 22.4623 10.6839 22.3512C10.5034 22.2384 10.2222 22.0579 10.059 21.9485C9.54175 21.6031 9.06788 21.3375 8.58359 21.1275C7.41539 20.6154 5.94862 20.2648 4.5565 20.1641C4.33606 20.1485 3.43517 20.145 3.24597 20.1589Z" fill="black"/>
<path d="M22.4526 22.2384C22.194 22.2939 21.9735 22.4085 21.5847 22.6897C20.7619 23.2816 19.8333 23.7833 19.0955 24.035C18.9827 24.0731 18.8577 24.1044 18.8178 24.1044H18.7432L18.7814 24.1686C18.8039 24.2051 18.8681 24.3196 18.9254 24.4255C18.9827 24.5297 19.0313 24.6199 19.0348 24.6234C19.0452 24.6355 19.4531 24.4984 19.6666 24.4134C20.1006 24.238 20.5015 24.0228 21.1768 23.601C21.9145 23.141 22.0933 23.0455 22.3797 22.964C22.5238 22.9223 22.5533 22.9206 22.7633 22.9292C23.0115 22.9397 23.199 22.9796 23.3431 23.0525C23.4333 23.0976 23.6104 23.2643 23.8534 23.5281L24.0027 23.6913L24.086 23.601C24.1919 23.4882 24.2127 23.4448 24.2144 23.3181C24.2144 23.1601 24.1016 22.9692 23.8534 22.7123C23.6191 22.4693 23.3726 22.3182 23.0896 22.2453C22.9351 22.2054 22.6158 22.2019 22.4526 22.2384Z" fill="black"/>
</svg>
