<svg width="28" height="28" viewBox="0 0 28 28" fill="none" xmlns="http://www.w3.org/2000/svg">
<path d="M23.625 13.125H6.16919L12.8533 6.75851C13.2033 6.42514 13.2169 5.87126 12.8835 5.52126C12.5506 5.1717 11.9967 5.1577 11.6463 5.49108L4.01275 12.7623C3.68244 13.0931 3.5 13.5323 3.5 14C3.5 14.4673 3.68244 14.907 4.02806 15.2521L11.6467 22.5085C11.816 22.67 12.033 22.75 12.25 22.75C12.481 22.75 12.712 22.659 12.8839 22.4783C13.2173 22.1283 13.2037 21.5749 12.8537 21.2415L6.14162 14.875H23.625C24.108 14.875 24.5 14.483 24.5 14C24.5 13.517 24.108 13.125 23.625 13.125Z" fill="black"/>
</svg>
