<svg width="28" height="28" viewBox="0 0 28 28" fill="none" xmlns="http://www.w3.org/2000/svg">
<path d="M14.2225 7.44504C12.4457 7.44504 11 5.99958 11 4.22252C11 2.44546 12.4457 1 14.2225 1C15.9992 1 17.4447 2.44546 17.4447 4.22252C17.4447 5.99958 15.9993 7.44504 14.2225 7.44504ZM14.2225 2.64711C13.3537 2.64711 12.647 3.35398 12.647 4.22252C12.647 5.09106 13.3537 5.79793 14.2225 5.79793C15.091 5.79793 15.7977 5.09106 15.7977 4.22252C15.7977 3.35398 15.0911 2.64711 14.2225 2.64711Z" fill="black"/>
<path d="M14.2225 2.64711C13.3537 2.64711 12.647 3.35398 12.647 4.22252C12.647 5.09106 13.3537 5.79793 14.2225 5.79793C15.091 5.79793 15.7977 5.09106 15.7977 4.22252C15.7977 3.35398 15.0911 2.64711 14.2225 2.64711Z" fill="black"/>
<path d="M14.2225 17.0404C12.4457 17.0404 11 15.5949 11 13.8179C11 12.0409 12.4457 10.5955 14.2225 10.5955C15.9992 10.5955 17.4447 12.0409 17.4447 13.8179C17.4447 15.5949 15.9993 17.0404 14.2225 17.0404ZM14.2225 12.2425C13.3537 12.2425 12.647 12.9494 12.647 13.8179C12.647 14.6865 13.3537 15.3933 14.2225 15.3933C15.091 15.3933 15.7977 14.6865 15.7977 13.8179C15.7977 12.9494 15.0911 12.2425 14.2225 12.2425Z" fill="black"/>
<path d="M14.2225 12.2425C13.3537 12.2425 12.647 12.9494 12.647 13.8179C12.647 14.6865 13.3537 15.3933 14.2225 15.3933C15.091 15.3933 15.7977 14.6865 15.7977 13.8179C15.7977 12.9494 15.0911 12.2425 14.2225 12.2425Z" fill="black"/>
<path d="M14.2225 26.6358C12.4457 26.6358 11 25.1904 11 23.4134C11 21.6364 12.4457 20.1909 14.2225 20.1909C15.9992 20.1909 17.4447 21.6364 17.4447 23.4134C17.4448 25.1904 15.9993 26.6358 14.2225 26.6358ZM14.2225 21.8379C13.3537 21.8379 12.647 22.5448 12.647 23.4133C12.647 24.2819 13.3537 24.9887 14.2225 24.9887C15.091 24.9887 15.7977 24.2819 15.7977 23.4133C15.7977 22.5448 15.0911 21.8379 14.2225 21.8379Z" fill="black"/>
<path d="M14.2225 21.8379C13.3537 21.8379 12.647 22.5448 12.647 23.4133C12.647 24.2819 13.3537 24.9887 14.2225 24.9887C15.091 24.9887 15.7977 24.2819 15.7977 23.4133C15.7977 22.5448 15.0911 21.8379 14.2225 21.8379Z" fill="black"/>
</svg>
